<svg xmlns="http://www.w3.org/2000/svg" width="287" height="39.091" viewBox="0 0 287 39.091">
  <g id="suraenlinea-logo-svg" transform="translate(-0.02 -0.62)">
    <path id="Path_1" data-name="Path 1" d="M73.841,306.8a3.6,3.6,0,0,1-.384,1.686,3.665,3.665,0,0,1-1.091,1.237,5,5,0,0,1-1.673.785,8.193,8.193,0,0,1-2.156.267,9.529,9.529,0,0,1-2.975-.431,6.209,6.209,0,0,1-2.393-1.462l1.293-1.272a4.35,4.35,0,0,0,1.806,1.168,7.152,7.152,0,0,0,2.259.345,4.821,4.821,0,0,0,2.548-.573,1.9,1.9,0,0,0,.931-1.725,1.725,1.725,0,0,0-.517-1.328,2.79,2.79,0,0,0-1.66-.586l-2.156-.185a5.01,5.01,0,0,1-2.932-1.039,3.117,3.117,0,0,1-1-2.488,3.41,3.41,0,0,1,1.354-2.8,4.683,4.683,0,0,1,1.526-.746,6.741,6.741,0,0,1,1.927-.267,9.556,9.556,0,0,1,2.617.345,5.8,5.8,0,0,1,2.087,1.065l-1.25,1.246a4.661,4.661,0,0,0-1.582-.772,6.964,6.964,0,0,0-1.9-.254,3.535,3.535,0,0,0-2.156.569,1.893,1.893,0,0,0-.746,1.582,1.725,1.725,0,0,0,.517,1.328,3.018,3.018,0,0,0,1.768.586l2.087.177a8.011,8.011,0,0,1,1.565.293,3.346,3.346,0,0,1,1.224.638,2.854,2.854,0,0,1,.785,1.061A3.88,3.88,0,0,1,73.841,306.8Z" transform="translate(-63.15 -280.842)" fill="#0033a0"/>
    <path id="Path_2" data-name="Path 2" d="M101.864,310.842v-1.462a4.523,4.523,0,0,1-1.634,1.207,5.068,5.068,0,0,1-2.057.431,4.562,4.562,0,0,1-3.376-1.224,4.153,4.153,0,0,1-1.009-1.6,6.287,6.287,0,0,1-.319-2.061v-8.36h1.914v8.049a3.529,3.529,0,0,0,.862,2.617,3.117,3.117,0,0,0,2.337.862,3.242,3.242,0,0,0,2.38-.862,3.492,3.492,0,0,0,.888-2.587v-8.08h1.914v13.072Z" transform="translate(-80.386 -281.064)" fill="#0033a0"/>
    <path id="Path_3" data-name="Path 3" d="M132.878,300.05a3.488,3.488,0,0,0-1.009-.742,3.561,3.561,0,0,0-2.552.052,2.759,2.759,0,0,0-.983.746,3.592,3.592,0,0,0-.625,1.112,4.122,4.122,0,0,0-.224,1.384v8.023H125.57V297.553h1.91v1.6a3.557,3.557,0,0,1,1.526-1.293,5,5,0,0,1,2.156-.466,5.09,5.09,0,0,1,1.69.267,3.836,3.836,0,0,1,1.444.957Z" transform="translate(-98.647 -280.848)" fill="#0033a0"/>
    <path id="Path_4" data-name="Path 4" d="M154.083,310.622v-1.25a4.6,4.6,0,0,1-1.634,1.1,6.364,6.364,0,0,1-2.156.306,7.391,7.391,0,0,1-2.22-.28,3.514,3.514,0,0,1-1.474-.914,3.147,3.147,0,0,1-.729-1.186,4.225,4.225,0,0,1-.254-1.474,3.475,3.475,0,0,1,1.155-2.746,4.913,4.913,0,0,1,3.363-1.026h3.932v-1.246a2.794,2.794,0,0,0-.772-2.156,3.736,3.736,0,0,0-2.587-.72,4.872,4.872,0,0,0-1.992.332,3.388,3.388,0,0,0-1.293,1.155l-1.293-1.194a4.432,4.432,0,0,1,1.953-1.539,7.7,7.7,0,0,1,2.669-.4,5.956,5.956,0,0,1,3.945,1.1,4.036,4.036,0,0,1,1.293,3.255v8.873Zm0-6.036h-3.669q-2.923,0-2.923,2.311a1.979,1.979,0,0,0,.72,1.686,3.776,3.776,0,0,0,2.285.548,8.65,8.65,0,0,0,1.578-.134,2.518,2.518,0,0,0,1.341-.746,3.128,3.128,0,0,0,.668-2.255Z" transform="translate(-110.048 -280.845)" fill="#0033a0"/>
    <path id="Path_5" data-name="Path 5" d="M177.849,304.571a5.059,5.059,0,0,0,.983,3.333,3.522,3.522,0,0,0,2.871,1.186,4.423,4.423,0,0,0,1.9-.362,5.54,5.54,0,0,0,1.526-1.125l1.293,1.138a9.483,9.483,0,0,1-1,.862,5.5,5.5,0,0,1-1.052.625,5.663,5.663,0,0,1-1.233.384,8.025,8.025,0,0,1-1.5.134,6.562,6.562,0,0,1-2.354-.4,4.557,4.557,0,0,1-1.794-1.22,5.721,5.721,0,0,1-1.155-2.087,9.753,9.753,0,0,1-.431-2.988,7.609,7.609,0,0,1,1.431-4.941,5.348,5.348,0,0,1,7.894-.03,7.064,7.064,0,0,1,1.406,4.622v.862Zm6.9-1.436c-.022-.263-.039-.5-.056-.69s-.039-.371-.065-.53a4.062,4.062,0,0,0-.108-.466,4.535,4.535,0,0,0-.172-.492,3.018,3.018,0,0,0-1.194-1.436,3.527,3.527,0,0,0-3.721,0,3.018,3.018,0,0,0-1.194,1.436,5.023,5.023,0,0,0-.293.957,8.75,8.75,0,0,0-.108,1.22Z" transform="translate(-127.283 -280.825)" fill="#0033a0"/>
    <path id="Path_6" data-name="Path 6" d="M215.867,310.623v-8.049a3.565,3.565,0,0,0-.862-2.617,3.63,3.63,0,0,0-4.712,0,3.5,3.5,0,0,0-.862,2.587v8.049h-1.91V297.551h1.91v1.436a4.419,4.419,0,0,1,1.621-1.194,5.118,5.118,0,0,1,2.048-.4,4.522,4.522,0,0,1,3.346,1.224,4.846,4.846,0,0,1,1.354,3.639v8.368Z" transform="translate(-145.265 -280.845)" fill="#0033a0"/>
    <path id="Path_7" data-name="Path 7" d="M242.456,303.128a3.039,3.039,0,0,1-2.522-1,3.828,3.828,0,0,1-.8-2.483V284.21h1.91v15.357a2.3,2.3,0,0,0,.375,1.436,1.66,1.66,0,0,0,1.38.479h1.039v1.647Z" transform="translate(-163.249 -273.351)" fill="#0033a0"/>
    <path id="Path_8" data-name="Path 8" d="M254.48,286.3V284.14h2.156V286.3Zm.108,16.793V290.016H256.5v13.072Z" transform="translate(-171.979 -273.311)" fill="#0033a0"/>
    <path id="Path_9" data-name="Path 9" d="M275.865,310.623v-8.049a3.565,3.565,0,0,0-.862-2.617,3.635,3.635,0,0,0-4.717,0,3.519,3.519,0,0,0-.862,2.587v8.049H267.51V297.551h1.914v1.436a4.418,4.418,0,0,1,1.621-1.194,5.112,5.112,0,0,1,2.044-.4,4.527,4.527,0,0,1,3.35,1.224,4.863,4.863,0,0,1,1.354,3.639v8.368Z" transform="translate(-179.391 -280.845)" fill="#0033a0"/>
    <path id="Path_10" data-name="Path 10" d="M299.516,304.571a5.06,5.06,0,0,0,.983,3.333,3.522,3.522,0,0,0,2.871,1.186,4.389,4.389,0,0,0,1.9-.362A5.6,5.6,0,0,0,306.8,307.6l1.293,1.138a9.488,9.488,0,0,1-1,.862,5.6,5.6,0,0,1-1.048.625,5.731,5.731,0,0,1-1.233.384,8.044,8.044,0,0,1-1.5.134,6.538,6.538,0,0,1-2.35-.4,4.557,4.557,0,0,1-1.794-1.22,5.722,5.722,0,0,1-1.155-2.087,9.622,9.622,0,0,1-.41-2.988,7.609,7.609,0,0,1,1.431-4.941,5.343,5.343,0,0,1,7.89-.03,7.147,7.147,0,0,1,1.41,4.622v.862Zm6.9-1.436c0-.263-.035-.5-.052-.69s-.039-.371-.065-.53a4.072,4.072,0,0,0-.108-.466c-.043-.151-.1-.315-.172-.491a3.065,3.065,0,0,0-1.194-1.436,3.527,3.527,0,0,0-3.721,0,3.018,3.018,0,0,0-1.194,1.436,5.021,5.021,0,0,0-.293.957,8.124,8.124,0,0,0-.108,1.22Z" transform="translate(-196.505 -280.825)" fill="#0033a0"/>
    <path id="Path_11" data-name="Path 11" d="M335.129,310.622v-1.25a4.606,4.606,0,0,1-1.634,1.1,6.376,6.376,0,0,1-2.156.306,7.361,7.361,0,0,1-2.216-.28,3.483,3.483,0,0,1-1.474-.914,3.211,3.211,0,0,1-.733-1.186,4.312,4.312,0,0,1-.25-1.474,3.475,3.475,0,0,1,1.155-2.746,4.9,4.9,0,0,1,3.359-1.026h3.936v-1.246a2.794,2.794,0,0,0-.772-2.156,3.748,3.748,0,0,0-2.587-.72,4.872,4.872,0,0,0-1.992.332,3.388,3.388,0,0,0-1.293,1.155l-1.293-1.194a4.432,4.432,0,0,1,1.953-1.539,7.7,7.7,0,0,1,2.669-.4,5.946,5.946,0,0,1,3.945,1.1,4.078,4.078,0,0,1,1.293,3.255v8.873Zm0-6.036H331.46q-2.923,0-2.923,2.311a1.979,1.979,0,0,0,.72,1.686,3.775,3.775,0,0,0,2.285.548A8.65,8.65,0,0,0,333.12,309a2.519,2.519,0,0,0,1.341-.746,3.128,3.128,0,0,0,.668-2.255Z" transform="translate(-213.04 -280.845)" fill="#0033a0"/>
    <path id="Path_12" data-name="Path 12" d="M358.56,324.8v-2.5h2.5v2.5Z" transform="translate(-231.186 -295.019)" fill="#0033a0"/>
    <path id="Path_13" data-name="Path 13" d="M380.922,308.866a6.156,6.156,0,0,1-1.979,1.513,5.736,5.736,0,0,1-2.324.431,6.209,6.209,0,0,1-2.3-.431,4.954,4.954,0,0,1-1.832-1.246,5.8,5.8,0,0,1-1.22-2.1,8.911,8.911,0,0,1-.431-2.936,8.8,8.8,0,0,1,.431-2.923,5.817,5.817,0,0,1,1.22-2.087,5.148,5.148,0,0,1,1.832-1.259,6.036,6.036,0,0,1,2.3-.431,5.734,5.734,0,0,1,2.324.431,6.218,6.218,0,0,1,1.979,1.513l-1.293,1.22a4.919,4.919,0,0,0-1.41-1.143,3.681,3.681,0,0,0-1.6-.315,3.879,3.879,0,0,0-1.724.371,3.363,3.363,0,0,0-1.293,1.117,4.118,4.118,0,0,0-.651,1.444,10.581,10.581,0,0,0,0,4.122,4.118,4.118,0,0,0,.651,1.444,3.362,3.362,0,0,0,1.293,1.117,3.88,3.88,0,0,0,1.725.371,3.5,3.5,0,0,0,1.6-.332,4.993,4.993,0,0,0,1.41-1.155Z" transform="translate(-238.169 -280.852)" fill="#0033a0"/>
    <path id="Path_14" data-name="Path 14" d="M407.988,304.09a12.871,12.871,0,0,1-.306,2.854,4.885,4.885,0,0,1-1.293,2.354,5.053,5.053,0,0,1-1.621,1.086,5.833,5.833,0,0,1-4.251,0,5.051,5.051,0,0,1-1.621-1.091,4.385,4.385,0,0,1-.811-1.1,6.344,6.344,0,0,1-.479-1.25,8.44,8.44,0,0,1-.237-1.367c-.047-.479-.069-.974-.069-1.487s.022-.987.069-1.474a8.437,8.437,0,0,1,.237-1.38,6.344,6.344,0,0,1,.479-1.25,4.31,4.31,0,0,1,.811-1.1,5.051,5.051,0,0,1,1.621-1.086,5.834,5.834,0,0,1,4.251,0,5.052,5.052,0,0,1,1.621,1.086,4.885,4.885,0,0,1,1.293,2.354,12.873,12.873,0,0,1,.306,2.858Zm-1.914,0c0-.371,0-.746-.026-1.117a7.475,7.475,0,0,0-.134-1.086,4.377,4.377,0,0,0-.319-1,3.29,3.29,0,0,0-.556-.836,3.242,3.242,0,0,0-2.393-.953,3.2,3.2,0,0,0-2.363.953,2.7,2.7,0,0,0-.573.836,5.775,5.775,0,0,0-.319,1,6.465,6.465,0,0,0-.147,1.086c0,.371-.026.746-.026,1.117s0,.746.026,1.117a6.465,6.465,0,0,0,.147,1.086,6.171,6.171,0,0,0,.319,1.013,2.345,2.345,0,0,0,.573.823,3.212,3.212,0,0,0,2.363.953,3.259,3.259,0,0,0,2.393-.953,2.772,2.772,0,0,0,.556-.823,4.625,4.625,0,0,0,.319-1.013,7.475,7.475,0,0,0,.134-1.086C406.065,304.836,406.074,304.461,406.074,304.09Z" transform="translate(-253.224 -280.848)" fill="#0033a0"/>
    <path id="Path_15" data-name="Path 15" d="M445.539,310.627v-8.049a3.565,3.565,0,0,0-.862-2.617,3.16,3.16,0,0,0-2.35-.862,3.3,3.3,0,0,0-2.35.862,3.122,3.122,0,0,0-.918,2.414v8.265h-1.914v-8.062a3.547,3.547,0,0,0-.862-2.617,3.16,3.16,0,0,0-2.35-.862,3.242,3.242,0,0,0-2.38.862,3.475,3.475,0,0,0-.888,2.587V310.6H428.75V297.555h1.914v1.436A4.394,4.394,0,0,1,432.3,297.8a5.209,5.209,0,0,1,2.057-.4,5,5,0,0,1,2.38.543,4.083,4.083,0,0,1,1.634,1.634,4.98,4.98,0,0,1,4.311-2.177,5.467,5.467,0,0,1,1.914.319,4.226,4.226,0,0,1,1.462.905,4.824,4.824,0,0,1,1.405,3.639v8.368Z" transform="translate(-271.115 -280.849)" fill="#0033a0"/>
    <g id="_Group_" data-name="&lt;Group&gt;" transform="translate(264.48 6.565)">
      <g id="_Group_2" data-name="&lt;Group&gt;">
        <path id="_Path_" data-name="&lt;Path&gt;" d="M692.314,328.44c.052,0,.052.052.052.1a6.98,6.98,0,0,1-1.388,1.293,11.929,11.929,0,0,1-2.112,1.233,11.618,11.618,0,0,1-2.264.927,5.446,5.446,0,0,1-2.156.207,2.07,2.07,0,0,1-1.186-.466V331.7c0-.047.052-.047.052-.047a30.537,30.537,0,0,0,5.2-1.341,16.385,16.385,0,0,0,3.807-1.85" transform="translate(-680.376 -305.077)" fill="#00aec7"/>
        <path id="_Path_2" data-name="&lt;Path&gt;" d="M688.353,326.274a23.212,23.212,0,0,1-4.941,2,14.1,14.1,0,0,1-5.092.772,2.613,2.613,0,0,1-1.7-.823l-.052-.052c0-.052.052-.052.1-.052l.431-.052c.862-.052,2.419-.1,4.221-.358a40.662,40.662,0,0,0,7-1.544c.052,0,.052.052.052.1" transform="translate(-676.57 -303.785)" fill="#00aec7"/>
        <path id="_Path_3" data-name="&lt;Path&gt;" d="M698.13,332.61c.052,0,.052,0,.052.052a3.419,3.419,0,0,1-1.643,2.009c-1.5.72-2.268.306-2.367.254a.181.181,0,0,1-.052-.1.052.052,0,0,1,.052-.052,9.455,9.455,0,0,0,3.958-2.156h0" transform="translate(-686.554 -307.449)" fill="#00aec7"/>
        <path id="_Path_4" data-name="&lt;Path&gt;" d="M702.216,291.048l.052.052a.052.052,0,0,1-.052.052c-.461-.1-1.388-.362-2.587-.72-2.729-.724-12.969-3.449-13.124-3.449h-.052a3.345,3.345,0,0,1-1.492-.927,3.067,3.067,0,0,1-.31-.41,4.061,4.061,0,0,1-.461-1.444v-.052h.1l1.7.673c3.962,1.492,14.508,5.557,16.207,6.226" transform="translate(-680.905 -279.882)" fill="#00aec7"/>
        <path id="_Path_5" data-name="&lt;Path&gt;" d="M701.2,283.821c0,.052,0,.1-.052.052-.617-.31-1.953-.927-3.341-1.6-1.134-.569-9.054-4.273-9.623-4.531l-.927-.461c-.155-.052-.259-.155-.431-.207a2.406,2.406,0,0,1-1.181-1.337,4.6,4.6,0,0,1-.207-1.44.052.052,0,0,1,.052-.052h.1l.979.616.513.31,2.884,1.746c4.061,2.419,9.722,5.971,11.21,6.9" transform="translate(-681.615 -274.25)" fill="#00aec7"/>
        <path id="_Path_6" data-name="&lt;Path&gt;" d="M705.1,298.56l.052.052a.052.052,0,0,1-.052.052l-15.543-1.026a.861.861,0,0,1-.358-.052,2.979,2.979,0,0,1-2.009-2.061v-.1a.181.181,0,0,1,.1-.052c-.052,0,16.469,2.936,17.806,3.19" transform="translate(-682.611 -286.264)" fill="#00aec7"/>
        <path id="_Path_7" data-name="&lt;Path&gt;" d="M709.323,304.92a.052.052,0,0,1,.052.052l-.052.052c-.569.1-11.21,1.6-11.27,1.6h-.362a2.371,2.371,0,0,1-1.44-.772,3.313,3.313,0,0,1-.461-.772v-.052l.052-.052s3.548,0,5.812-.052h7.67" transform="translate(-687.504 -291.697)" fill="#00aec7"/>
        <path id="_Path_8" data-name="&lt;Path&gt;" d="M712.58,307.43h.052a.073.073,0,0,1,0,.1c-.362.254-7.976,3.393-8.079,3.449a.91.91,0,0,1-1.237-.358c-.155-.259-.254-.431-.306-.513s-.1-.1.1-.207c0,0,2.156-.569,4.061-1.082,2.268-.565,4.79-1.181,5.407-1.388" transform="translate(-691.584 -293.125)" fill="#00aec7"/>
        <path id="_Path_9" data-name="&lt;Path&gt;" d="M711.17,319.72c.052,0,.052.052.052.1-.72.862-3.449,3.88-4.682,5.2-.155.151-.207.052-.155-.052a4.171,4.171,0,0,0,.31-1.03c.052-.259.1-.513.254-.617C708.6,321.932,710.14,320.6,711.17,319.72Z" transform="translate(-693.519 -300.116)" fill="#00aec7"/>
        <path id="_Path_10" data-name="&lt;Path&gt;" d="M714.015,310.85c.052,0,.052.052.052.1-.72.617-4.169,3.5-6.036,4.993l-.052.052c-.513.41-.862.513-.974-.362a1.961,1.961,0,0,0-.052-.431c-.052-.2,0-.2.1-.2.621-.362,1.75-1.03,2.677-1.6,1.6-.979,3.553-2.113,4.273-2.587" transform="translate(-693.842 -295.053)" fill="#00aec7"/>
      </g>
    </g>
    <path id="_Compound_Path_" data-name="&lt;Compound Path&gt;" d="M547.476,297.209l2.932.772a1.869,1.869,0,0,1,1.647,1.854c0,1.181-.772,1.906-2.587,1.906l-5.6.052v2.518h5.713c3.449,0,5.454-1.85,5.454-4.311s-.974-3.708-3.548-4.376l-3.346-.927c-.927-.254-1.75-.668-1.75-1.8s.72-1.75,2.212-1.75h2.988c1.337,0,2.88-.461,2.88-2.587H548.8c-3.449,0-5.454,1.75-5.454,4.273C543.359,295.217,544.8,296.54,547.476,297.209Zm16.211,7.36c2.984,0,5.915-1.44,5.915-4.372V291.7c0-2.315-.862-3.087-2.777-3.087v10.912c0,1.6-1.341,2.367-3.018,2.367-1.85,0-3.018-.823-3.018-2.367v-8.192c0-2.32-1.44-2.729-2.725-2.729v11.58C557.974,303.128,560.6,304.568,563.687,304.568Zm12.348-10.033c0-2.113,1.134-3.346,3.242-3.346h.823c2.419,0,2.781-1.237,2.781-2.587H579c-3.393,0-5.764,1.957-5.764,6.036v9.727h2.729v-9.83Zm13.43,10.136a5.162,5.162,0,0,0,4.682-2.419c.207,1.6,1.082,2.108,2.833,2.108V290.828h0v-2.263h-6.786c-3.652,0-7.1,2.677-7.256,7.976C582.778,301.326,585.244,304.672,589.465,304.672Zm.772-13.533h3.708v6.739c0,2.156-1.237,4.273-3.967,4.273-2.414,0-4.165-1.647-4.061-5.557C586.016,292.837,587.869,291.138,590.236,291.138Z" transform="translate(-336.306 -275.825)" fill="#0033a0"/>
    <line id="Line_1" data-name="Line 1" y2="38.091" transform="translate(191.394 1.12)" fill="none" stroke="#0033a0" stroke-linecap="round" stroke-linejoin="round" stroke-width="1"/>
  </g>
</svg>
